<svg width="95" height="95" viewBox="0 0 95 95" fill="none" xmlns="http://www.w3.org/2000/svg">
<g clip-path="url(#clip0_205_83)">
<rect width="48" height="85" transform="translate(60.1041) rotate(45)"/>
<path d="M53.562 39.239C53.7136 39.3906 53.9258 39.3451 54.032 39.239C54.1305 39.1405 54.1532 39.0116 54.1381 38.8903C54.032 37.8745 54.3654 36.6466 55.9194 35.0926C57.4733 33.5387 58.7014 33.2052 59.7171 33.3113C59.8384 33.3265 59.9672 33.3037 60.0658 33.2052C60.1643 33.1067 60.2174 32.8868 60.0658 32.7352C60.0051 32.6745 59.9369 32.6366 59.8611 32.6215C58.6787 32.3638 57.1625 32.6973 55.3433 34.5166C53.5241 36.3358 53.2133 37.8443 53.4483 39.0343C53.4635 39.1101 53.5013 39.1784 53.562 39.239Z" fill="black"/>
<path d="M56.2052 41.9277C56.2659 41.9883 56.3341 42.0262 56.4099 42.0415C57.6 42.2764 59.1085 41.9656 60.9277 40.1463C62.7469 38.3271 63.0805 36.8111 62.8227 35.6286C62.8075 35.5528 62.7696 35.4846 62.709 35.4239C62.5574 35.2723 62.3376 35.3254 62.239 35.4239C62.1405 35.5224 62.1178 35.6513 62.1329 35.7726C62.239 36.7884 61.9056 38.0163 60.3516 39.5703C58.7977 41.1242 57.5696 41.4577 56.5539 41.3516C56.4327 41.3365 56.3038 41.3592 56.2052 41.4577C56.0991 41.5639 56.0536 41.7761 56.2052 41.9277Z" fill="black"/>
<path d="M70.1047 23.5672L58.7231 28.2964C58.3158 28.4774 58.1574 28.5453 57.999 28.7036C57.5465 29.1562 57.5238 29.8576 57.9764 30.3102C58.3384 30.6722 58.8362 30.7175 59.4698 30.446L68.9507 26.3051L64.8325 35.8087C64.5383 36.4196 64.5836 36.9174 64.9683 37.3021C65.3982 37.732 66.1223 37.732 66.5748 37.2794C66.7332 37.121 66.8011 36.9627 66.9821 36.5554L71.7112 25.1285C71.9827 24.5402 71.9149 24.065 71.5528 23.703C71.2134 23.3636 70.7156 23.3183 70.1047 23.5672Z" fill="black"/>
<path d="M45.9016 50.6836L57.2762 45.9377C57.6832 45.7561 57.8415 45.6879 57.9996 45.5293C58.4516 45.0761 58.4731 44.3746 58.0199 43.9227C57.6573 43.5612 57.1595 43.5168 56.5263 43.7891L47.0515 47.944L51.1557 38.4344C51.449 37.823 51.403 37.3253 51.0177 36.9412C50.5872 36.5119 49.8632 36.5129 49.4113 36.9661C49.2532 37.1248 49.1855 37.2833 49.005 37.6908L44.2927 49.1246C44.022 49.7133 44.0906 50.1884 44.4532 50.5499C44.7931 50.8888 45.291 50.9334 45.9016 50.6836Z" fill="black"/>
<path d="M60.9022 57.6799L59.28 45.4621C59.2106 45.0218 59.186 44.8512 59.074 44.6573C58.7541 44.103 58.0823 43.8997 57.5281 44.2196C57.0846 44.4756 56.9121 44.9447 57.0104 45.6271L58.5563 55.8566L50.4425 49.419C49.9284 48.9768 49.4359 48.8916 48.9648 49.1636C48.4383 49.4676 48.2508 50.167 48.5709 50.7213C48.6829 50.9153 48.8183 51.0218 49.1648 51.3021L58.9784 58.8275C59.4764 59.2421 59.953 59.2995 60.3963 59.0436C60.8119 58.8036 60.9846 58.3344 60.9022 57.6799Z" fill="black"/>
<path d="M36.2815 36.5124L43.7952 46.2823C44.0755 46.6288 44.182 46.7642 44.3761 46.8762C44.9303 47.1963 45.6137 47.0365 45.9337 46.4823C46.1897 46.0389 46.1046 45.5464 45.6783 45.0046L39.2248 36.9185L49.4703 38.4368C50.1366 38.5627 50.6057 38.3902 50.8778 37.919C51.1817 37.3925 50.9944 36.6931 50.4401 36.3732C50.2461 36.2611 50.0755 36.2365 49.6352 36.1671L37.3737 34.5566C36.7352 34.4466 36.2938 34.6351 36.0378 35.0785C35.7978 35.4942 35.883 35.9868 36.2815 36.5124Z" fill="black"/>
<path d="M41.3663 51.7513L40.7779 52.3396C39.8728 53.2447 38.9904 53.3126 38.0853 52.4075C37.0897 51.4119 35.5284 48.674 34.035 47.1806C31.8401 44.9857 29.781 45.4156 27.9029 47.2937L27.1789 48.0178C26.7263 48.4703 26.7263 49.1491 27.1562 49.5791C27.6088 50.0316 28.265 50.009 28.7175 49.5564L29.1248 49.1492C30.2562 48.0178 31.4554 47.9499 32.7905 49.2849C34.0123 50.5068 35.3926 53.0184 36.5919 54.2177C37.6327 55.2586 38.5605 55.3717 39.7145 54.9418C39.2845 56.0958 39.3977 57.0235 40.4385 58.0644C41.6378 59.2636 44.1268 60.6212 45.3713 61.8658C46.7063 63.2008 46.6384 64.4 45.5071 65.5314L45.0998 65.9387C44.6472 66.3912 44.6246 67.0474 45.0771 67.5C45.5071 67.9299 46.1859 67.9299 46.6384 67.4774L47.3625 66.7533C49.218 64.8978 49.6705 62.8161 47.4757 60.6212C45.9822 59.1278 43.2443 57.5665 42.2487 56.5709C41.3436 55.6658 41.4115 54.7834 42.3166 53.8783L42.9049 53.29C43.3348 52.86 43.3575 52.1586 42.9275 51.7287C42.475 51.2761 41.7962 51.3214 41.3663 51.7513Z" fill="black"/>
<path d="M33.1671 60.5475L32.823 60.8916C32.2935 61.4211 31.7773 61.4609 31.2478 60.9314C30.6654 60.3489 29.752 58.7473 28.8784 57.8736C27.5943 56.5896 26.3898 56.8411 25.2911 57.9398L24.8675 58.3634C24.6028 58.6281 24.6028 59.0252 24.8543 59.2768C25.119 59.5415 25.5029 59.5283 25.7677 59.2635L26.006 59.0252C26.6678 58.3634 27.3693 58.3237 28.1503 59.1047C28.8651 59.8195 29.6726 61.2888 30.3741 61.9903C30.983 62.5992 31.5258 62.6654 32.2008 62.4139C31.9493 63.089 32.0155 63.6318 32.6244 64.2406C33.326 64.9422 34.7821 65.7365 35.5101 66.4645C36.2911 67.2455 36.2514 67.947 35.5896 68.6089L35.3513 68.8472C35.0865 69.1119 35.0733 69.4957 35.338 69.7605C35.5895 70.012 35.9866 70.012 36.2514 69.7472L36.6749 69.3237C37.7604 68.2382 38.0251 67.0204 36.7412 65.7365C35.8675 64.8628 34.2658 63.9494 33.6834 63.367C33.154 62.8375 33.1936 62.3213 33.7231 61.7918L34.0673 61.4476C34.3188 61.1961 34.332 60.7858 34.0805 60.5343C33.8157 60.2695 33.4186 60.296 33.1671 60.5475Z" fill="black"/>
<path d="M26.9376 67.9249L26.6934 68.1691C26.3178 68.5447 25.9515 68.5728 25.5759 68.1972C25.1627 67.784 24.5148 66.6478 23.895 66.028C22.9842 65.1172 22.1296 65.2956 21.3503 66.075L21.0498 66.3755C20.8619 66.5633 20.8619 66.845 21.0403 67.0234C21.2282 67.2112 21.5005 67.2018 21.6883 67.014L21.8573 66.8449C22.3269 66.3754 22.8245 66.3473 23.3785 66.9013C23.8857 67.4084 24.4584 68.4507 24.9562 68.9484C25.3881 69.3804 25.7731 69.4274 26.252 69.249C26.0736 69.7279 26.1206 70.1128 26.5525 70.5448C27.0502 71.0425 28.0831 71.6059 28.5996 72.1223C29.1536 72.6764 29.1255 73.174 28.656 73.6435L28.4869 73.8126C28.2991 74.0004 28.2897 74.2728 28.4776 74.4606C28.656 74.639 28.9377 74.639 29.1255 74.4512L29.426 74.1507C30.196 73.3807 30.3838 72.5168 29.4729 71.6059C28.8532 70.9862 27.7169 70.3382 27.3037 69.925C26.9281 69.5494 26.9563 69.1832 27.3319 68.8076L27.5761 68.5634C27.7545 68.385 27.7639 68.0939 27.5855 67.9155C27.3977 67.7277 27.116 67.7465 26.9376 67.9249Z" fill="black"/>
</g>
<defs>
<clipPath id="clip0_205_83">
<rect width="48" height="85" transform="translate(60.1041) rotate(45)"/>
</clipPath>
</defs>
</svg>
